<?xml version="1.0" encoding="utf-8"?>
<!-- Generator: Adobe Illustrator 23.0.0, SVG Export Plug-In . SVG Version: 6.00 Build 0)  -->
<svg version="1.1" id="Layer_1" xmlns="http://www.w3.org/2000/svg" xmlns:xlink="http://www.w3.org/1999/xlink" x="0px" y="0px"
	 viewBox="0 0 634.32 611.39" style="enable-background:new 0 0 634.32 611.39;" xml:space="preserve">
<style type="text/css">
	.st0{fill:#040000;}
	.st1{fill:#FFFFFF;}
	.st2{fill:#FEFEFF;}
	.st3{fill:#EFEEED;}
	.st4{fill:#FCFCFD;}
	.st5{fill:#F4F3F3;}
	.st6{fill:#EEEDED;}
	.st7{fill:#F5F5F5;}
	.st8{fill:#F7F6F6;}
	.st9{fill:#F8F8F8;}
	.st10{fill:#E7E7E6;}
	.st11{fill:#E9E8E8;}
	.st12{fill:#E3E3E3;}
	.st13{fill:#E6E5E5;}
	.st14{fill:#E5E5E5;}
	.st15{fill:none;stroke:#070001;stroke-linecap:round;stroke-miterlimit:10;}
	.st16{fill:#070001;}
	.st17{fill:#F29E9F;}
	.st18{fill:none;stroke:#040000;stroke-width:2;stroke-miterlimit:10;}
	.st19{fill:#DDDDDD;stroke:#050101;stroke-width:2;stroke-miterlimit:10;}
	.st20{fill:none;stroke:#090103;stroke-linecap:round;stroke-miterlimit:10;}
	.st21{fill:#E8E7E7;}
	.st22{fill:#EAE9E9;}
	.st23{fill:#E5E4E4;}
	.st24{fill:#E9E9E8;}
	.st25{fill:#F7F7F7;}
	.st26{fill:#F7F8F8;}
</style>
<path class="st0" d="M178.17,352c-0.24,1.48-0.11,2.9,0.75,4.19c0.97,1.08,0.41,2.56,0.97,3.74c0.21,1.84-0.08,3.72,0.56,5.51
	c0.08,1.89-0.12,3.79,0.46,5.64c0.32,3.02-0.31,6.1,0.49,9.09c0.2,5.84,0.14,11.71,2.34,17.28c0.7,4.44,3.77,8.9-0.05,13.33
	c-0.57,0.42-1.13,0.84-1.7,1.26c0.12,13.55-0.03,27.09-0.56,40.63c-0.95,6.74-0.19,13.52-0.44,20.28c-0.07,1.97,0.21,3.97-0.4,5.91
	c-0.3,5.27,0.03,10.55-0.17,15.82c-0.91,6.14-0.21,12.32-0.43,18.48c-0.77,7.87-0.55,15.73-0.1,23.6
	c-1.02,6.61-0.28,13.26-0.5,19.89c-0.07,2.15,0.15,4.33-0.53,6.43c-0.52,11.2-0.74,22.4-0.9,33.61c-0.03,2.09,0.56,4.33-1.03,6.19
	c-0.94,0.02-1.88,0.04-2.83,0.06c-3.11-5.66-1.48-11.72-1.21-17.58c0.19-4.15,0.7-8.29,0.61-12.46
	c-0.58-25.99,0.85-51.96,1.28-77.94c0.33-20.12,0.65-40.27,1.72-60.38c0.07-1.33,0.03-2.67-0.06-4c-0.13-1.93-0.93-2.38-2.95-2
	c-11.57,2.14-20.21-2.41-24.79-13.13c-2.63-6.16-4.36-12.61-4.18-19.4c0.3-11-2.05-21.44-5.9-31.71
	c-3.92-10.45-6.88-21.24-9.73-32.03c-1.13-4.3-3.35-6.29-7.74-5.86c-0.66,0.06,0.15,0.1-0.5-0.01c-8.21-1.36-13.1,2.38-18.16,8.92
	c-12.56,16.24-16.87,34.61-18.22,54.5c-1.31,19.32,2.37,38.08,4.5,57.04c1.63,14.55,2.71,29.16,3.8,43.77
	c1.77,23.74,2.02,47.55,3.75,71.28c0.3,4.16,0.12,8.33,0.11,12.49c-0.01,5.98-0.23,11.94,0.73,17.93c0.55,3.46,1.33,7.33-1.38,10.53
	c-0.92-0.01-1.85-0.03-2.77-0.04c-2.04-2.24-1.27-5.02-1.4-7.61c-0.09-1.82-0.08-3.65-0.7-5.4c-0.53-3.3-0.25-6.63-0.35-9.95
	c-0.27-6.91,0.66-13.86-0.59-20.74c-0.51-2.38-0.34-4.8-0.4-7.21c-0.25-5.6,0.63-11.24-0.59-16.81c-0.46-2.05-0.36-4.13-0.4-6.2
	c-0.22-4.92,0.57-9.88-0.57-14.76c-0.41-1.71-0.38-3.45-0.42-5.18c-0.17-3.92,0.48-7.88-0.54-11.76c-0.38-1.66-0.5-3.32-0.21-5.01
	c0.34-1.61,0.55-3.24,0.92-4.85c-1.38-20.09-3.51-40.09-6.28-60.05c-3.47-25.07-3.74-50.11,5.31-74.35
	c4.38-11.72,12.62-20.96,20.36-30.47c2.3-2.82,1.95-7.76-1.37-9.43c-3.08-1.55-3.29-4.5-3.58-7.23
	c-1.71-16.23-3.12-32.48-3.39-48.82c-0.43-25.67,0.14-51.28,3.17-76.81c0.69-5.79,2.49-11.07,6.49-15.32
	c1.86-1.98,2.59-3.94,2.52-6.6c-0.17-6.33-0.23-12.67,0.02-18.99c0.07-1.72-0.15-2.75-0.91-3.31"/>
<path class="st0" d="M110.14,136.02c-0.59-0.43-1.52-0.59-2.89-0.55c-9.99,0.23-20-0.06-29.99,0.16c-3.07,0.07-4.48-0.85-5.16-3.82
	c-3.02-13.24-6.55-26.33-7.61-40c-3.25-42.24,27.6-63.68,57.46-65.91c13.68-1.02,26.82,1.36,39.35,6.98
	c13.36,5.99,21.46,15.35,20.24,30.93c-0.24,3.13,0.24,6.31,0.29,9.47c0.09,5.47,2.24,9.8,6.31,13.53c5.41,4.95,5.28,8.38-0.52,13.03
	c-4.01,3.21-5.97,7.05-6.91,12.11c-1.78,9.59-5.95,17.89-15.28,22.62c-2.05,1.04-3.67,2.93-5.71,3.99c-9,4.67-9.52,12.71-8.8,21.33
	c0.09,1.06,0.38,1.75,1.28,2.45c10.94,8.57,17.05,20.56,22.57,32.81c4.07,9.04,7.45,18.4,11.14,27.61
	c5.87,14.65,3.77,29.43,0.56,44.16c-3.22,14.78-8.66,28.81-14.95,42.54c-1.53,3.34-5.5,5.28-5.08,9.84
	c0.14,1.54-0.58,2.57,1.57,3.12c3.79,0.97,5.38,3.81,6.24,7.55c1.68,7.28,2.82,14.64,3.89,22.02"/>
<path class="st1" d="M95.81,602.93c-0.74-30.13-1.71-60.24-3.35-90.34c-1.08-19.79-2.42-39.55-4.39-59.28
	c-1.7-17.04-5.42-33.85-5.47-51.09c-0.05-16.07,1.25-31.88,6.69-47.15c3.88-10.89,11.97-19.07,18.13-28.5
	c0.68-1.04,1.66-1.43,2.97-1.41c5.16,0.08,10.33,0.12,15.5,0.01c2.06-0.04,2.66,0.74,3.26,2.73c4.91,16.41,10.15,32.71,15.04,49.13
	c1.56,5.24,1.99,10.74,1.74,16.26c-0.43,9.33,2.15,17.94,6.08,26.3c2.74,5.82,8.39,5.97,13.37,7.64c4.52,1.52,8.55,0.68,11.59-2.35
	c0,16.38,0.26,32.32-0.05,48.25c-0.82,41.95-1.89,83.89-2.86,125.84c-0.03,1.33,0.04,2.66,0.07,3.99
	C148.02,602.95,121.92,602.94,95.81,602.93z"/>
<path class="st1" d="M180.64,408.79c-3.29-2.51-4.91-5.81-5.39-9.85c-0.17-1.43,0.14-4.21-2.17-3.68c-2.27,0.52-1.03,3.02-0.74,4.63
	c1.1,6.2,2.36,12.37,3.48,18.57c0.19,1.05,0.57,2.21-0.44,3.62c-3.3-5.72-3.66-12.05-5.25-18c-0.35-1.31,0.23-3.56-2.14-2.98
	c-2.08,0.5-1.08,2.61-0.83,3.8c1.01,4.85,2.33,9.63,3.53,14.44c0.47,1.87,1.53,3.74-0.36,6.07c-3.73-5.45-4.54-11.67-6.43-17.49
	c-0.66-2.04,0.47-6.3-2.87-5.63c-2.67,0.53-0.51,3.96-0.04,5.99c1.21,5.22,2.68,10.38,3.57,15.72c-4.1-3.96-4.56-9.49-6.39-14.41
	c-0.83-2.23-0.2-6.62-3.12-5.91c-2.91,0.71-0.17,4.37,0.16,6.59c0.55,3.68,1.99,7.22,3.29,11.65c-2.91-1.38-3.6-3.44-4.37-5.19
	c-3.16-7.16-5.69-14.55-5.11-22.52c0.99-13.67-4.44-25.86-8.37-38.42c-6.7-21.44-13.2-42.95-17.16-65.08
	c-2.76-15.43-2.2-31.15-2.51-46.78c-0.04-1.76,0.59-2.23,2.35-2.12c7.81,0.48,15.62,0.84,23.44,1.2c1.8,0.08,2.02,0.79,1.81,2.55
	c-1.99,16.84,0.13,33.49,2.73,50.09c4.01,25.65,9.5,51,15.59,76.24c1.32,5.47,4.19,10.05,7.22,14.56
	c3.75,5.59,6.35,11.58,7.37,18.25C181.72,406.05,181.86,407.33,180.64,408.79z"/>
<path class="st1" d="M114.48,136.06c0.55-0.6,1.52-0.55,2.65-0.53c5.16,0.07,10.33-0.09,15.48,0.06c2.6,0.08,3.83-0.7,4.46-3.38
	c2.95-12.69,4.21-25.51,3.85-38.52c-0.07-2.38-0.34-4.23-3.66-3.75c-5.04,0.73-4.67-3.75-4.75-6.38c-0.1-3.16,1.73-6.93,5.57-6
	c3.44,0.82,4.83-0.6,6.69-2.58c8.65-9.23,17.48-18.29,25.98-27.66c2.36-2.6,3.13-1.53,4.43,0.6c2.14,3.49,3.24,7.2,3.21,11.32
	c-0.03,4.66,0.14,9.32,0.25,13.97c0.15,6.28,2.42,11.48,7.21,15.77c4.13,3.69,4.03,5.47-0.33,8.58c-4.51,3.22-6.85,7.38-7.64,12.8
	c-0.36,2.48-1.14,3.96-1.83,4.75c-0.3,0.34-5.06,12.23-9.07,14.68c-2.97,1.81-5.73,3.97-8.62,5.91
	c-7.16,4.81-12.39,10.56-10.5,20.13c0.51,2.6,0.08,3.87-3.33,2.74c-10.01-3.33-20.13-4.25-30.51,1.16c0-7.59,0.09-14.67-0.05-21.74
	C113.98,137.31,114.31,136.69,114.48,136.06"/>
<path class="st2" d="M177.83,385.87c-3.75-4.72-6.45-8.89-7.59-13.66c-3.29-13.82-6.29-27.71-9.18-41.62
	c-0.33-1.61-3.2-4.42,0.38-5.21c3.23-0.72,7.16-1.05,9.16,3.02c0.35,0.72,0.33,1.61,0.53,2.41
	C175.6,348.51,176.56,366.64,177.83,385.87z"/>
<path class="st3" d="M111.05,167.02c0.62,0.43,0.96,1.09,0.51,1.68c-5.31,6.92-4.76,15.24-5.53,23.21
	c-0.81,8.36-1.35,16.75-2.01,25.12c1.01,5.9,0.46,11.86,0.4,17.78c-0.1,10.72,0.66,21.46-0.4,32.17c1,12.68,1.99,25.37,3.02,38.05
	c0.22,2.73,1.58,4.24,4.56,4c1.82-0.15,3.69-0.23,5.48,0.02c4.04,0.55,5.51-1.18,4.92-5.03c0.27-0.3,0.54-0.3,0.81,0
	c0.42,1.91,1.64,3.68,0.97,6.15c-3.88,0-7.9-0.34-11.84,0.09c-4.68,0.52-6.38-1.19-6.8-5.83c-1.6-17.73-3.09-35.45-3.26-53.27
	c-0.21-23.15,0.47-46.24,3.13-69.25C105.67,176.34,106.98,171.14,111.05,167.02z"/>
<path class="st3" d="M156.99,299.01c0.1,1.49-0.31,3.34,0.43,4.38c1.08,1.54-0.85,4.86,2.11,4.69c3.1-0.17,6.78,1.25,8.8-3.5
	c9.36-22,17.2-44.27,15.66-68.72c-0.52-8.31-4.37-15.63-7.33-23.14c-3.83-9.73-7.62-19.51-12.68-28.72
	c-0.46-0.42-0.44-0.82,0.08-1.18c1.99,0.7,2.41,2.64,3.22,4.22c7.01,13.57,12.86,27.69,17.3,42.25c4.11,13.48,1.19,27.07-2.02,40.39
	c-3,12.44-8.01,24.19-12.65,36.08c-2.45,6.3-7.16,4.2-11.09,4.06c-3.71-0.13-2.21-4-2.86-6.28c-0.13-0.46,0-0.99,0.01-1.49
	C155.65,300.83,154.54,299.32,156.99,299.01z"/>
<path class="st3" d="M117.03,196.93c2.45-1.35,1.98,0.79,1.92,1.8c-0.2,3.44-0.6,6.86-0.93,10.3c1.02,7.44,0.39,14.92,0.38,22.37
	c-0.01,3.29,0.9,4.38,4.23,4.21c3.1-0.15,6.29-0.63,9.38,0.4c0.98,1.24,2.38,0.97,3.68,0.99c2.99,0.03,6.05,0.42,8.95-0.09
	c3.26-0.58,7.2,3.03,9.27-0.08c1.42-2.14,0.11-6.06,0.12-9.19c0.03-7.95-1.66-15.81-1.03-23.79c0.17-2.17-0.19-4.67,2.97-4.72
	c3.17-0.05,2.83,2.42,3.08,4.61c1.12,9.73,0.99,19.5,0.98,29.27c0.51,1.01-0.05,1.11-0.85,0.99c-0.09-3.5-0.18-7-0.28-10.51
	c-0.98-3.78,0.24-7.69-0.7-11.47c-0.08-2.66-0.11-5.32-0.24-7.97c-0.08-1.57,0.33-3.92-2-3.74c-1.9,0.15-1.28,2.27-1.22,3.72
	c0.43,10.14,0.68,20.29,1.32,30.41c0.27,4.36-1.23,5.4-5.44,5.06c-9.78-0.8-19.6-1.19-29.41-1.55c-3.64-0.13-5.46-1.26-5.44-5.27
	c0.06-11.14-0.19-22.29,1.48-33.36C117.34,198.55,117.1,197.72,117.03,196.93z"/>
<path class="st4" d="M126.93,322.01c-3.31,0-6.64-0.35-9.88,0.08c-4.76,0.64-5.82-1.36-5.43-5.65c0.19-2.07,0.47-3.02,2.7-2.82
	c1.3,0.12,2.63-0.11,3.95-0.16C126.08,313.16,126.35,313.43,126.93,322.01z"/>
<path class="st3" d="M122.82,304c-0.27,0-0.54,0-0.81,0c-2.68-4.65-2.22-10.14-4.02-15.02c-1.22-1.85,0.31-4.15-0.99-5.99
	c0-0.34-0.01-0.67-0.01-1.01c-0.78-6.31-0.76-12.63-0.02-18.94c-0.4-2.67,1.02-5.57-0.98-8.04c-1.38-4.26,0.46-8.77-0.99-13.02
	c-0.15-0.7-1.1-1.46,0.15-2.05c2.73,0.23,2.78,2.06,2.82,4.24c0.16,9.3,0.76,18.6,0.7,27.89C118.59,282.93,120.78,293.44,122.82,304
	z"/>
<path class="st3" d="M164.07,182.83c-0.03,0.39-0.05,0.79-0.08,1.18c-3.43-4.81-6.37-9.96-10.63-14.18
	c-9.47-9.36-26.02-11.68-37.5-5.09c-0.96,0.55-1.77,1.75-2.87,0.25c11.93-10.42,35.5-6.68,44.66,7.31
	C159.9,175.72,163.33,178.48,164.07,182.83z"/>
<path class="st3" d="M156.99,299.01c-1.19,0.73-0.9,1.96-1.02,3.05c-3.56-18.58-6.67-37.19-4.21-56.24c0.28-2.2,0.63-3.51,3.15-2.86
	c0.32,0.09,0.64,0.18,0.95,0.27c-4.12,2.49-2.67,6.56-2.85,10.15c-0.77,14.57,1.06,28.96,3.1,43.33
	C156.22,297.5,156.69,298.24,156.99,299.01z"/>
<path class="st5" d="M160.51,313.32c2.05-0.09,4.16-0.36,3.43,2.25c-0.64,2.29,0.94,6.46-3.17,6.28c-3.46-0.15-2.21-3.96-2.78-6.23
	C157.31,312.92,159.22,313.17,160.51,313.32z"/>
<path class="st6" d="M112.1,224.39c0.2-4.79-1-9.64,0.72-14.36C112.76,214.82,113.08,219.64,112.1,224.39z"/>
<path class="st7" d="M159.16,233.98c0.28-0.33,0.57-0.66,0.85-0.99c1.47,4.1,0.92,6.27-2.03,7.97
	C159.4,238.81,158.94,236.34,159.16,233.98z"/>
<path class="st7" d="M158.18,212.01c1.65,3.73,0.6,7.63,0.7,11.46C157.63,219.72,158.13,215.85,158.18,212.01z"/>
<path class="st6" d="M112.87,236.99c-1.51-1.61-0.68-3.56-0.77-5.37C112.36,233.4,112.62,235.19,112.87,236.99z"/>
<path class="st8" d="M84.75,392.27c0,4.57,0,9.14,0,13.71c-0.17,0-0.33,0-0.5,0c0-4.58,0-9.16,0-13.74
	C84.42,392.25,84.59,392.26,84.75,392.27z"/>
<ellipse class="st9" cx="97.5" cy="583" rx="0.32" ry="8.36"/>
<path class="st10" d="M104.02,266.97c0-16.65,0-33.3,0-49.95c1.25,0.97,0.97,2.37,0.97,3.66c0.01,14.21,0.01,28.42,0,42.63
	C104.99,264.61,105.27,266,104.02,266.97z"/>
<path class="st11" d="M132,236c-4.51-0.51-10.33,2.07-13.22-1.19c-2.58-2.91-0.65-8.53-0.75-12.95c-0.1-4.28-0.01-8.56-0.01-12.84
	c2.2,5.1,0.77,10.44,0.9,15.65c0.26,10.29,0.07,10.3,10.16,10.33c1.16,0,2.33,0,3.49,0.02c0.12,0,0.32,0.16,0.33,0.26
	C132.99,235.98,132.4,235.88,132,236z"/>
<path class="st12" d="M110.14,235.68c0-8.78,0-17.56,0-26.34c0.16,0,0.33-0.01,0.49-0.01c0,8.84,0,17.69,0,26.53
	C110.46,235.8,110.3,235.74,110.14,235.68z"/>
<path class="st13" d="M116.97,263.04c0.01,6.31,0.01,12.63,0.02,18.94C115.39,275.67,115.42,269.35,116.97,263.04z"/>
<path class="st14" d="M115,241.97c2.17,4.2,0.42,8.7,0.99,13.02C113.82,250.79,115.56,246.3,115,241.97z"/>
<path class="st13" d="M117,282.99c1.79,1.76,0.67,3.99,0.99,5.99C116.18,287.23,117.33,284.99,117,282.99z"/>
<path class="st9" d="M117.26,137.25c5.9,0,11.81,0,17.71,0c0,0.17,0,0.33,0,0.5c-5.91,0-11.82,0-17.74,0
	C117.25,137.58,117.25,137.41,117.26,137.25z"/>
<path class="st3" d="M112.47,234.3c-0.02,0.92-0.04,1.84,0.4,2.69c0.76,0.98,1.52,1.96,2.28,2.94c0.32,1.13,0.91,2.18,1.02,3.38
	c0.57,3.78-0.54,7.69,0.92,11.41c0.75,2.71,0.33,5.45,0.29,8.18c-0.52,6.11,0.02,12.21,0.3,18.31c0.15,0.52,0.24,1.05,0.27,1.59
	c-0.05,2.14,0.25,4.22,1.01,6.23c1.2,5.34,2.06,10.74,3.54,16.02c0.77,3.15-0.2,4.46-3.7,4.52c-11.38,0.21-11.26,0.31-12.94-10.5
	c-1.66-10.62-1.7-21.37-2.73-32.04c0.83-16.48,0.63-32.97,0.11-49.45c0.91-13.7,1.3-27.45,3.65-41.04c0.62-3.6,3.25-6.14,4.16-9.51
	c0.32-0.99,0.97-1.67,1.94-2.04c11.42-7.01,23.11-6.31,34.59-0.54c7.05,3.54,11.11,10.28,15.2,16.76c0.61,0.97,0.83,2.19,1.83,2.94
	c6.63,11.02,10.44,23.28,15.58,34.96c8.07,18.36,5.16,36.64,0.22,54.95c-2.86,10.58-6.69,20.83-11.36,30.75
	c-1.73,3.66-6.59,5.53-10.36,4.34c-1.32-0.42-1.19-1.47-1.37-2.35c-0.53-2.6-1.15-5.19-1.38-7.85c-2.81-15.91-4.65-31.89-3.94-48.09
	c0.13-2.99,0.15-5.93,2.92-7.9c1.03-0.66,2.05-1.33,3.08-1.99c3.3-2.83,1.65-6.43,1.52-9.8c0.02-9.31-1.02-18.58-0.99-27.88
	c0-1.81-0.37-3.63-2.49-3.56c-2.18,0.08-2.16,2-2.18,3.75c-0.15,10.31,0.87,20.57,1.24,30.85c0.14,3.79-1.26,4.79-4.69,4.06
	c-6.03-1.28-12.31,0.77-18.28-1.32c-2.22-2.08-4.82-0.47-7.21-0.6c-6.3-0.34-7.16-1.02-7.29-7.21c-0.14-6.43,0.29-12.87-0.26-19.29
	c-0.82-2.49,0.42-4.84,0.48-7.23c0.05-1.89,1.71-4.22-0.8-5.81c-3.6-0.22-3.45,2.75-3.79,4.88c-0.43,2.69-0.31,5.48-0.42,8.22
	c-0.85,4.21,0.05,8.5-0.45,12.72"/>
<path class="st3" d="M112.41,228.72c-0.04,0.96-0.14,1.93-0.3,2.89c0.41,0.85,0.38,1.77,0.36,2.69"/>
<path class="st3" d="M112.42,227.7c0,0.34,0,0.68-0.01,1.02"/>
<path class="st3" d="M112.37,222.75c-0.06,0.55-0.15,1.09-0.27,1.63c0.2,1.1,0.3,2.21,0.32,3.31"/>
<path class="st15" d="M179.75,73.1c0,0-7.02-2-13.96,0.12"/>
<path class="st0" d="M64.38,90.24C64.38,90.24,69,210,44,212c0,0,27,35,56,16c0,0-0.1-39.01,2.45-50.5C105,166,112,162,112,162v-29"
	/>
<path class="st16" d="M174.88,80.5l-0.07,4.21c-0.02,1.41-1.22,2.55-2.66,2.53l0,0c-1.44-0.02-2.61-1.19-2.58-2.61l0.07-4.21
	c0.02-1.41,1.22-2.55,2.66-2.53l0,0C173.74,77.92,174.9,79.09,174.88,80.5z"/>
<ellipse class="st17" cx="161.84" cy="94.96" rx="3.03" ry="2.96"/>
<path class="st18" d="M146.5,162c0,0,13.91,42.89,27.05,42.89"/>
<path class="st19" d="M175.63,202.98c0,0-2.96,1.51-0.91,6.66c2.05,5.15,4.99,3.58,4.99,3.58"/>
<path class="st0" d="M136.75,133.31c0,0-10.75,21.69-23.75,27.69s-2-33-2-33L136.75,133.31z"/>
<g>
	<g>
		<path class="st16" d="M165.42,119.42c2.63-3.06,8.54-2.35,12.11-1.85c1.42,0.2,2.03-1.97,0.6-2.17
			c-4.4-0.63-11.03-1.38-14.29,2.42C162.89,118.92,164.47,120.52,165.42,119.42L165.42,119.42z"/>
	</g>
</g>
<path class="st20" d="M140,80.57c0,0-3.93-3.13-5.57,3.08"/>
<path class="st20" d="M136.62,80.08c0,0,2.76,4.8-0.14,7.98"/>
<path class="st3" d="M163.11,179.92c0,0,1.14,1.31,3.01,4.69C168,188,163,184,163,184L163.11,179.92z"/>
<polygon class="st0" points="158,212 158.91,224.4 156,219 "/>
<path class="st0" d="M158.19,240.62c0,0-1.19,3.38-3.19,2.38s-2-1-2-1l4-1"/>
<path class="st0" d="M112.82,216.12"/>
<path class="st0" d="M113,237c0,0,0,3,3,3S113,237,113,237z"/>
<path class="st3" d="M107,305c0,0-1.38,3.05,1.81,3.53C112,309,107,305,107,305z"/>
<g>
	<g>
		<path class="st0" d="M175.68,353.28c0.23,1.36,0.46,2.72,0.69,4.08c0.14,0.8,1.12,1.25,1.85,1.05c0.85-0.23,1.18-1.04,1.05-1.85
			c-0.23-1.36-0.46-2.72-0.69-4.08c-0.14-0.8-1.12-1.25-1.85-1.05C175.88,351.66,175.54,352.47,175.68,353.28L175.68,353.28z"/>
	</g>
</g>
<path class="st3" d="M487,610c-26.67,0-53.33,0-80,0c-0.81-0.96-1.04-2.06-0.84-3.28c0.48-6.79,1.37-13.58-0.58-20.3
	c-1.59-4.42-0.96-8.93-0.62-13.44c1.06-10.18,1.06-20.37-0.02-30.54c-1.73-4.3-1.46-8.76-1.01-13.22c1.34-4.84,0.44-9.78,0.7-14.68
	c0.12-2.28-0.23-4.59,0.48-6.84c0.18-0.56,0.67-1.1,0.32-1.77c-0.04,0.68-0.29,1.18-1.08,1.23c-3.32-4.68-1.28-9.87-1.46-14.85
	c1-7.61,1.54-15.22-0.29-22.79c-1.66-4.82-0.98-9.73-0.62-14.64c1.2-4.4,0.65-8.9,0.58-13.34c-0.16-10.41,0.72-20.83-0.53-31.21
	c-0.21-3.53-1.47-7.19,1.15-10.41c1.63-1.97,0.24-4.18,0.36-6.25c0.34-5.97,1.1-7,7.03-7.04c12.28-0.09,24.55-0.03,36.83-0.03
	c14.43,0,28.87-0.01,43.3,0.01c2.31,0,4.66-0.23,6.89,0.59c0.52,0.23,0.99,0.56,1.4,0.96c1.33,1.41,0.99,3.48,2,5.02
	c0.51,0.86,0.8,1.78,0.69,2.79c-0.43,2.31-0.79,4.62,0.35,6.86c0.41,0.97,0.66,1.96,0.51,3.03c-0.21,7.74-0.39,15.47,0.12,23.2
	c0.19,0.79,0.21,1.58,0.04,2.37c-0.13,0.49-0.33,0.96-0.6,1.39c-1.48,2.56-0.65,5.17-0.18,7.78c-0.43,5.15-0.89,10.3-2.4,15.28
	c-1.41,1.77-1.31,3.82-1.03,5.9c0,0.7-0.22,1.33-0.54,1.93c-1.17,2.06-0.64,4.19-0.28,6.32c0.1,0.93-0.15,1.76-0.62,2.55
	c-1.23,1.83-0.72,3.73-0.25,5.64c0.28,1.44-0.12,2.75-0.77,4.01c-1.13,1.91-0.7,3.91-0.34,5.91c0.09,0.99-0.22,1.87-0.69,2.71
	c-1.28,3-0.69,6.05-0.26,9.1c0.14,1.3-0.27,2.47-0.78,3.62c-1.15,3.4-0.67,6.84-0.24,10.29c0.11,1.05-0.16,2.02-0.64,2.94
	c-1.31,3.44-0.88,6.89-0.12,10.35c0.38,1.89,0.24,3.72-0.7,5.43c-1.6,3.79-1.01,7.64-0.28,11.49c0.39,1.95,0.23,3.83-0.73,5.61
	c-1.53,4.77-1.04,9.57-0.23,14.37c0.43,2.3,0.38,4.55-0.75,6.67c-1.62,6.65-0.98,13.34-0.34,20.03c0.37,1.78,0.14,3.47-0.72,5.06
	c-1.39,2.6-0.64,5.42-0.81,8.14C488.25,606.08,488.6,608.26,487,610z"/>
<path class="st0" d="M510.88,378.75c-0.61,1.35-0.67,2.98-2.04,3.93c-4.38,1.91-4.78,4.96-3.98,9.52
	c3.23,18.24,1.58,36.58,0.21,54.88c0.26,0.43,0.31,0.88,0.11,1.36c-0.35,1.68-0.1,3.4-0.27,5.1c-1.34,2.57-0.58,5.46-1.28,8.13
	c-0.9,1.65-0.58,3.45-0.66,5.2c-0.01,0.76-0.04,1.53-0.28,2.26c-1.2,2.14-0.52,4.48-0.72,6.72c-0.01,0.77-0.04,1.54-0.28,2.28
	c-1.2,2.18-0.52,4.55-0.71,6.84c-0.02,1.05,0.03,2.11-0.28,3.14c-1.28,2.52-0.5,5.24-0.72,7.86c-0.03,1.35,0.1,2.71-0.46,4
	c-1.03,2.92-0.32,5.95-0.54,8.93c-0.04,1.38,0.1,2.77-0.46,4.08c-1.06,3.26-0.3,6.62-0.54,9.93c-0.02,1.41,0.05,2.83-0.17,4.24
	c-1.56,4.16-0.52,8.48-0.83,12.72c-0.07,1.73,0.19,3.48-0.47,5.15c-1.11,4.32-0.26,8.71-0.52,13.07
	c-1.65,10.93-0.43,21.98-1.47,32.94c-1.11,4.39-0.26,8.86-0.53,13.28c-0.12,1.94,0.41,3.99-0.99,5.71c-1,0-2,0-3,0
	c-2.4-3.3-1.49-7.11-1.3-10.65c0.8-15.54,1.15-31.11,2.08-46.62c1.19-19.8,1.98-39.64,3.92-59.39c1.63-16.61,3.57-33.2,6.49-49.65
	c0.64-3.61-0.23-7.32,0.88-10.88c0.63-14.06,0.92-28.1-1.67-42.05c-0.6-3.24-2.24-4.38-5.46-4.38c-28.83,0.05-57.67,0.06-86.5-0.01
	c-3.56-0.01-4.76,1.18-5.13,4.86c-2.35,23.23-1.43,46.58-0.78,69.76c0.46,16.68,0.46,33.46,1.38,50.19
	c0.98,17.68,2.29,35.52,1.36,53.28c-0.66,12.52,1.65,24.85,1.13,37.31c-0.12,2.81,0.18,5.68-1.4,8.24c-1,0-2,0-3,0
	c-2.49-3.59-1.03-7.67-1.36-11.52c-0.17-1.96-0.04-3.95-0.04-5.92c0.06-2.43,0.01-4.86-0.53-7.25c0.36-13.45-0.53-26.86-0.94-40.29
	c-0.66-5.31,0.59-10.6,0.2-15.9c-1.44-4.88-0.45-9.88-0.71-14.82c-0.13-2.48,0.12-4.97-0.5-7.42c0.65-4.95,0.04-9.96,0.73-14.9
	c0.14-7.76,0.52-15.53-0.76-23.24c-1.38-3.13,0.1-6.53-0.93-9.69c-0.22-1.53-0.12-3.09-0.48-4.6c-0.02-14.64-0.37-29.27,0.17-43.9
	c0.18-3.29,0.89-6.55,0.68-9.87c0.89-3.59,0.28-7.26,0.51-10.89c0.03-1.33,0.76-2.62,0.26-3.99l0.04-0.02
	c-0.92-0.4-1.05-1.26-1.24-2.09c-0.18-2.81-0.05-5.62-0.09-8.43c0.03-1.38-0.1-2.77,0.39-4.11c0.25-3.55-0.04-7.11,0.45-10.65
	c0.53-4.87-0.33-9.78,0.51-14.63c0.39-3.56-0.04-7.13,0.24-10.69c0.85-5.34-0.02-10.81,1.26-16.11c0-0.71,0.01-1.41,0.01-2.12
	c-0.73-3.28-0.4-6.55,0.1-9.81c-4.3-6.43-8.61-12.87-12.91-19.3c-1.34-1.07-2.2-2.49-2.93-4l0.07,0.08c-1.05-0.7-1.1-1.8-1.14-2.9
	c-4.92-9.07-9.84-18.14-14.76-27.21c-4.6-5.38-6.58-12.2-9.93-18.27c-0.88-1.59-1.4-3.38-2.51-4.85c-0.59-1.23-2.19-1.89-2.05-3.55
	c-1.55-1.72-3.03-3.56-5.77-2.97c-4.79-2.18-9.18-2.37-14.49-0.31c-15.09,5.86-30.64,10.46-46.55,13.69
	c-0.97,0.2-1.96,0.37-2.95,0.46c-8.52,0.78-8.47,0.76-11.15-7.44c-9.57-29.29-19.18-58.56-28.78-87.84
	c-2.2-6.72-1.19-9.13,5.55-11.88c17.11-6.98,34.25-13.87,51.4-20.75c5.39-2.16,8.62-0.71,10.92,4.84c0.75,1.82,1.03,3.36,3.83,3.18
	c6.22-0.4,8.17,1.31,10.1,7.75c4.08,13.56,8.12,27.13,12.25,40.95c2.78-4.08,6.1-3.06,9.2-1.35c7.7,4.23,14.22,10,19.05,17.28
	c6.33,9.54,12.11,19.44,18.13,29.18c1.11,0.05,1.52,0.93,2.03,1.69c0.97,1.8,2.13,3.48,3.31,5.15c5.98,9.58,13.32,18.2,19.62,27.56
	c0.53,0.59,0.89,1.73,1.59,1.72c1.28-0.03,0.78-1.52,1.28-2.27c0.77-1.7,1.37-3.45,1.69-5.3c2.83-8.82,5.79-17.59,8.7-26.38
	c0.79-2.02,1.42-4.1,2.32-6.07c0.78-1.69,1.32-3.47,2.1-5.16c0.51-1.03,0.91-2.15,2.02-2.73c5.9-11.6,11.11-23.59,20.11-33.36
	c2.34-2.54,0.94-14.84-1.47-17.42c-3.54-3.8-7.55-7.15-12.07-9.57c-9.73-5.21-13.77-14-15.63-24.06c-0.78-4.2-2.49-7.35-5.75-9.98
	c-6.94-5.6-7.18-8.66-0.51-14.72c4.84-4.4,5.36-10.04,5.83-15.82c0.21-2.65,0.19-5.34,0.01-7.99c-0.92-13.56,6.06-22.43,17.42-28.1
	c20.22-10.1,41.23-10.35,62.46-3.55c22.44,7.18,33.92,25.06,33.72,50.93c-0.11,13.97-3.65,26.43-13.13,36.93
	c-5.12,5.68-11.27,9.74-18.72,11.63c-2.45,0.62-3.61,1.69-3.36,4.42c0.27,2.97,0.18,5.99,0.03,8.98c-0.42,7.98-0.11,15.39,6,21.95
	c4.55,4.88,5.5,11.91,6.59,18.48"/>
<path class="st3" d="M405,610c-0.95-39.11-1.9-78.21-2.85-117.32c-0.68-27.97-1.83-55.93-1-83.91c0.2-6.82,0.77-13.63,0.94-20.45
	c0.07-2.59,0.88-3.35,3.5-3.34c30.66,0.09,61.31,0.09,91.97,0.01c2.55-0.01,3.24,0.75,3.66,3.26c2.5,14.86,3.08,29.75,1.62,44.74
	c-0.78,0.09-1.19-0.14-0.86-1c0-0.67-0.01-1.34-0.01-2.01c-0.77-8.32-0.77-16.63,0-24.95c-0.33-0.68-0.66-1.36-0.99-2.04
	c-0.75-2.32-0.72-4.63-0.02-6.95c0-0.83-0.15-1.59-0.96-2.03c-1.18-1.5,0.22-3.52-1.01-5.01l0.01,0.01c-1.01-1.87-2.79-1.5-4.42-1.5
	c-28.65-0.01-57.3,0.05-85.95-0.08c-3.29-0.01-4.43,0.87-4.24,4.19c0.15,2.77,0.6,5.64-0.42,8.38c-2,3.19-0.56,6.7-0.97,10.04
	c1.03,7.56,0.39,15.15,0.4,22.72c0.01,7.41,0.61,14.84-0.4,22.23c0.45,4.67-1.11,9.47,0.97,14.02c0.83,7.66,0.78,15.32,0.03,22.98
	c0.53,5-1.19,10.14,0.98,15.03c0.8,7.32,0.77,14.65,0.02,21.97c0.09,4.36-0.51,8.76,0.98,13.02c0.81,10.33,0.78,20.66,0.02,30.99
	c0.53,4.32-1.18,8.82,0.98,13.02c0.82,6.99,0.78,13.99,0.02,20.98c-0.01,1.01-0.01,2.01-0.02,3.02C406.33,610,405.67,610,405,610z"
	/>
<path class="st3" d="M501.99,431.98c0.29,0.33,0.57,0.67,0.86,1c-0.13,11.52-2.77,22.74-4.16,34.11
	c-2.58,21.15-4.27,42.38-5.47,63.63c-1.49,26.4-3.05,52.82-3.21,79.28c-0.67,0-1.33,0-2,0c-0.79-5-0.78-10,0-15
	c1.47-1.07,0.86-2.64,0.98-4.03c-0.75-6.99-0.78-13.98,0.01-20.96c1.82-1.77,0.7-4.02,0.99-6.03c-0.74-4.99-0.77-9.98,0.02-14.97
	c1.66-1.42,0.76-3.34,0.97-5.04c-0.74-3.99-0.77-7.97,0.02-11.96c1.68-1.42,0.77-3.34,0.98-5.04c-0.71-3.66-0.74-7.31,0.02-10.96
	c0.81-0.44,0.98-1.2,0.98-2.03c-0.73-3.65-0.74-7.3,0.01-10.95c0.33-1.01,0.66-2.03,0.99-3.04c-0.74-3.33-0.79-6.65,0.03-9.97
	c0.82-0.44,0.97-1.2,0.97-2.04c-0.71-1.98-0.72-3.95,0-5.93c0.69-1.27,1.19-2.59,0.99-4.07c-0.7-1.99-0.72-3.97,0.01-5.95
	c0.82-0.44,0.99-1.2,0.99-2.04c-0.69-2.33-0.77-4.65,0.04-6.97c0.32-0.34,0.64-0.68,0.96-1.03c-0.72-1.99-0.74-3.98,0.01-5.97
	c2.14-5.13,1.79-10.73,2.98-16.04c-0.71-2.65-0.76-5.31,0.03-7.96C501.32,432,501.66,431.99,501.99,431.98z"/>
<path class="st14" d="M488,595c0,5,0,10,0,15c-0.33,0-0.67,0-1,0C487.57,605.02,485.81,599.88,488,595z"/>
<path class="st3" d="M403.99,399.98C404.02,387,404.02,387,416.9,387c25.59,0,51.18-0.03,76.77,0.06c1.85,0.01,4.55-1.37,5.35,1.93
	c-1.96-1.21-4.15-1-6.31-1c-27.29,0-54.57,0.13-81.86-0.11c-4.97-0.04-6.52,1.55-5.9,6.22c0.28,2.13,0.05,4.32,0.03,6.48
	c0,0.11-0.17,0.22-0.27,0.33C404.47,400.61,404.23,400.29,403.99,399.98z"/>
<path class="st21" d="M403.02,454.97c0-14.98,0-29.97,0-44.95c1.08,0.82,0.97,2.01,0.97,3.16c0,12.88,0,25.75,0,38.63
	C404,452.96,404.1,454.15,403.02,454.97z"/>
<path class="st22" d="M406.02,572.98C406.01,562.66,406,552.33,406,542c1.63,1.45,1.05,3.4,0.96,5.12
	C406.48,555.73,408.2,564.43,406.02,572.98z"/>
<path class="st11" d="M405.02,528.98c-0.01-7.32-0.02-14.65-0.02-21.97c0.04-0.94,0.09-1.89,0.13-2.83
	C405.3,512.46,407.3,520.75,405.02,528.98z"/>
<path class="st3" d="M501.98,405.03c0,8.32,0,16.63,0,24.95C500.37,421.66,500.37,413.34,501.98,405.03z"/>
<path class="st11" d="M404.02,491.98c-0.01-7.66-0.02-15.32-0.03-22.98C405.64,476.66,405.61,484.32,404.02,491.98z"/>
<path class="st23" d="M488.99,570c0,6.99-0.01,13.98-0.01,20.96C487.4,583.98,487.39,576.99,488.99,570z"/>
<path class="st24" d="M407.02,606.98c-0.01-6.99-0.01-13.99-0.02-20.98C408.63,592.99,408.6,599.99,407.02,606.98z"/>
<path class="st3" d="M490,549c-0.01,4.99-0.02,9.98-0.02,14.97C488.39,558.98,488.36,553.99,490,549z"/>
<path class="st3" d="M490.99,532c-0.01,3.99-0.01,7.97-0.02,11.96C489.43,539.97,489.41,535.99,490.99,532z"/>
<path class="st3" d="M492.99,503.02c0,3.65-0.01,7.3-0.01,10.95C491.4,510.32,491.38,506.67,492.99,503.02z"/>
<path class="st3" d="M492,516c-0.01,3.65-0.02,7.31-0.02,10.96C490.4,523.31,490.38,519.65,492,516z"/>
<path class="st3" d="M494,490c-0.01,3.32-0.02,6.65-0.03,9.97C492.45,496.64,492.42,493.32,494,490z"/>
<path class="st3" d="M500.99,432c-0.01,2.65-0.02,5.31-0.03,7.96C499.46,437.3,499.46,434.65,500.99,432z"/>
<path class="st3" d="M497.01,463c-0.01,2.32-0.03,4.65-0.04,6.97C495.45,467.63,495.41,465.31,497.01,463z"/>
<path class="st3" d="M500.97,396.03c0.01,2.32,0.01,4.63,0.02,6.95C499.43,400.67,499.44,398.35,500.97,396.03z"/>
<path class="st3" d="M495.98,472.01c0,1.98-0.01,3.97-0.01,5.95C494.48,475.97,494.51,473.99,495.98,472.01z"/>
<path class="st3" d="M494.98,482.03c0,1.98,0,3.95,0,5.93C493.49,485.98,493.49,484.01,494.98,482.03z"/>
<path class="st3" d="M497.99,456c0,1.99-0.01,3.98-0.01,5.97C496.48,459.98,496.5,457.99,497.99,456z"/>
<path class="st3" d="M499,388.99c1.68,1.4,0.73,3.33,1.01,5.01C498.32,392.6,499.24,390.68,499,388.99z"/>
<path class="st1" d="M403.42,311.23c3.82,3.33,6.45,6.54,10.01,8.76c11.05,6.88,22.25,5.76,30.9-3.9
	c14.06-15.69,25.71-32.92,32.22-53.24c0.37-1.14-0.03-3.03,1.78-3.23c5.65-0.61,6.86-5.19,8.44-9.34
	c4.31-11.32,8.87-22.57,11.53-34.45c0.18-0.81,0.49-1.59,0.63-2.41c0.23-1.35,0.39-3.03-1.33-3.22c-1.34-0.15-1.49,1.43-1.75,2.59
	c-2.97,13.17-7.83,25.71-12.81,38.21c-2.27,5.7-3.18,6.1-8.9,4.24c-11.99-3.89-23.99-7.75-35.98-11.64
	c-4.77-1.55-5.35-2.87-3.27-7.6C439.72,225,444.58,214,449.44,203c0.4-0.91,0.86-1.79,1.21-2.72c0.5-1.35,1.58-3.09-0.39-3.83
	c-1.7-0.63-1.9,1.29-2.4,2.45c-2.94,6.8-5.88,13.6-8.86,20.38c-1.99,4.52-3.98,9.05-6.08,13.52c-1.86,3.95-4.07,7.8-0.35,11.9
	c1.27,1.41-0.23,2.56-0.69,3.59c-2.73,6.09-5.69,12.09-8.78,18.57c-2.64-3.57-5.2-6.97-7.68-10.42c-0.84-1.18-0.57-2.61-0.2-3.87
	c7.35-24.65,14.53-49.32,27.59-71.83c8.23-14.2,19.88-21.99,36.42-21.86c14.37,0.11,26.1,11.59,27.8,27.55
	c4.43,41.77,5.7,83.64,4.2,125.62c-0.77,21.46-1.94,42.88-4.1,64.25c-0.41,4.02-1.65,5.76-6.11,5.73
	c-31.98-0.19-63.97-0.1-95.95-0.11c-2.04,0-4.28,0.78-4.12-2.95C401.86,356.74,402.59,334.5,403.42,311.23z"/>
<path class="st1" d="M426.15,321.13c-7.16-0.14-13.11-4.44-18.27-10.07c-12.94-14.12-21.64-31.01-30.7-47.62
	c-5.39-9.9-10.25-20.09-15.29-30.18c-3.21-6.43-7.12-11.44-15.02-13.02c-10.6-2.12-17.3-10.62-24.82-17.56
	c-0.85-0.78-1.66-1.86-0.57-3.01c0.9-0.97,2.12-0.93,3.22-0.31c3.88,2.17,7.76,4.35,11.59,6.61c0.98,0.58,1.72,1.75,2.89,0.34
	c1.23-1.49-0.27-2.13-1.02-2.73c-5.32-4.32-11.65-6.78-17.81-9.56c-1.96-0.89-5.67-1.17-4.93-3.73c1.02-3.53,4.68-1.66,6.93-1
	c5.55,1.64,10.68,4.37,15.67,7.31c1.09,0.64,2.49,2.46,3.7,0.29c0.97-1.74-0.78-2.2-1.88-2.83c-5.89-3.37-11.76-6.78-18.51-8.21
	c-2.06-0.44-4.08-1.09-3.23-3.82c0.74-2.37,2.66-1.97,4.54-1.54c7.3,1.69,14.01,4.87,20.71,8.09c1.07,0.52,2.53,1.91,3.47,0.28
	c1.12-1.94-0.8-2.37-2.13-3.06c-6.02-3.15-12.24-5.79-18.74-7.75c-1.21-0.36-3.14-0.1-3.05-1.81c0.09-1.77,1.96-2.03,3.47-2.14
	c5.99-0.43,11.44,1.55,16.76,3.96c1.95,0.88,3.75,2.1,5.64,3.11c1.19,0.63,2.53,2.55,3.76,0.76c1.51-2.21-1.1-2.74-2.29-3.47
	c-2.67-1.63-5.49-3.03-8.31-4.39c-1.15-0.56-2.9-2.08-1.78-2.24c2.86-0.41-0.17-6.48,4.56-4.15c7.34,3.61,13.26,8.94,18.1,15.35
	c3.89,5.15,7.4,10.67,10.5,16.33c14.9,27.21,34.5,51.19,52.28,76.42c0.86,1.22,1.8,3.52,3.77,1.9c1.73-1.43-0.41-2.83-1.19-3.62
	c-2.68-2.7-2.57-5.3-0.95-8.48c2.75-5.42,5.31-10.95,7.75-16.52c0.92-2.1,1.98-2.58,4.11-1.87c10.85,3.65,21.7,7.33,32.64,10.69
	c3.11,0.95,2.33,2.46,1.7,4.45c-4.9,15.56-13.4,29.14-23.24,41.96c-2.63,3.43-5.4,6.75-8.23,10.02
	C438.03,318.79,433.08,321.08,426.15,321.13z"/>
<path class="st1" d="M336.66,172.5c-3.92-1.49-6.86-1.62-9.83-1.51c-3.35,0.12-5.14,2.15-7.58,4.39c-4.09,3.74-3.57,9.04-6.53,12.97
	c-2.12,2.81-0.35,5.41,2.55,6.82c2.16,1.05,3.61,1.83,2.75,4.88c-0.78,2.75,1.31,4.99,3.37,6.76c4.91,4.23,9.86,8.39,15.14,12.88
	c-13.02,4.71-26.07,8.87-39.35,12.28c-5.29,1.36-10.56,2.85-16.08,3.13c-2.62,0.14-3.66-0.71-4.49-3.27
	c-9.77-30.26-19.61-60.49-29.68-90.65c-1.48-4.42,0.43-6.02,3.84-7.39c9.04-3.62,18.08-7.26,27.1-10.91
	c7.94-3.22,15.91-6.37,23.77-9.76c3.96-1.71,5.84-0.46,7.63,3.28c1.78,3.71-0.78,3.83-2.8,4.47c-14.96,4.76-29.95,9.44-44.92,14.15
	c-0.95,0.3-1.88,0.63-2.83,0.92c-1.25,0.38-3.06,0.59-2.69,2.28c0.51,2.34,2.39,1.09,3.64,0.7c14.2-4.45,28.37-8.96,42.55-13.48
	c4.09-1.3,8.16-2.64,12.23-3.97c3.99-1.3,6.68-0.37,7.98,4C326.98,140.8,331.67,156.06,336.66,172.5z"/>
<path class="st0" d="M493,37.01c15.36,3.44,27.72,11.21,33.07,26.52c7.37,21.12,6.76,41.86-9.44,59.07
	c-14.76,15.68-38.42,13.17-47.83-2.39c-3.78-6.25-4.11-13.2-3.76-20.24c0.07-1.5,0.94-2.23,2.24-2.95
	c4.62-2.56,6.13-7.29,4.29-12.79c-1.68-5.01-5.46-7.69-10.57-6.6c-3.41,0.73-3.15-1.75-3.72-3.31c-3.03-8.29-2.98-8.31-12.04-8.31
	c-5.83,0-11.65,0.03-17.48,0c-4.75-0.03-5.75-1.26-4.51-6.14c2.26-8.89,8.48-14.6,16.3-18.43c4.87-2.38,10.29-3.65,15.47-5.41
	c3.48,1.62,6.79-0.44,10.15-0.68c8.82-0.62,17.42,0.06,25.99,2.01C491.83,37.5,492.44,37.45,493,37.01z"/>
<path class="st1" d="M417.99,91.52c1.38-0.91,3-1.32,5.19-0.54c1.16,0.41,0.66,1.75,1.04,2.61c2.61,5.99,8.54,8.91,15.09,7.42
	c5.32-1.21,9.05-6.26,8.96-12.15c-0.08-5.8-4.08-10.82-9.44-11.88c-6.37-1.26-12.14,1.71-14.58,7.64c-0.54,1.32-0.38,3.52-2.45,2.78
	c-0.36-0.13-0.58-0.3-0.7-0.49"/>
<path class="st1" d="M424.67,119.56c-0.41-0.73-0.72-1.71-0.95-2.97c-1.13-6.14-3.57-11.19-8.97-14.76
	c-2.06-1.36-3.76-3.61-1.06-6.16c1.44-1.36,2.71-3.09,4.3-4.15"/>
<path class="st1" d="M426.81,126.52c-0.14-0.32-0.27-0.64-0.39-0.98c-0.11-0.3-0.12-0.62-0.25-1.31c6.44,0.25,11.19-3.08,15.47-7.34
	c0.94-0.94,2.24-2.08,1.11-3.35c-1.31-1.47-2.24,0.13-3.18,0.99c-2.57,2.35-5.18,4.65-8.52,5.89c-3.31,1.23-5.23,1.13-6.36-0.86"/>
<path class="st1" d="M421.1,86.92c-0.48-0.77,0.57-1.97,0.7-2.91c0.41-2.79,1.31-5.67,0.97-8.39c-0.69-5.47,1.07-7.15,6.62-6.68
	c6.61,0.56,13.31,0.15,19.97,0.07c2.17-0.03,3.77-0.04,3.83,2.98c0.04,2.05,1.13,4.11,1.84,6.13c1.08,3.08,1.41,6.55,6.34,2.88
	c3.1-2.31,5.69,0.82,6.92,4.01c1.57,4.08,0.48,8.84-2.34,8.89c-3.79,0.07-3.99,2.15-3.96,4.77c0.05,4.32-0.39,8.75,0.42,12.94
	c2.84,14.77,12.54,23.16,27.91,24.42c3.55,0.29,5.23,1.08,4.93,5.2c-0.45,6.11-0.12,12.28-0.12,18.75
	c-14.51-7.47-28.1-4.33-41.36,2.74c-0.21-0.32-0.53-0.58-0.49-0.78c1.9-9.68-2.74-15.96-10.32-21.23
	c-5.89-4.09-13.03-7.02-16.16-14.2"/>
<path class="st2" d="M445.18,89.11c0,5.19-3.81,9.09-9,9.19c-5.46,0.11-9.36-3.73-9.38-9.22c-0.01-5.25,3.75-9.15,8.91-9.24
	C441.08,79.74,445.18,83.76,445.18,89.11z"/>
<path class="st0" d="M493,37.01c-2.83,2.44-5.73,0.07-8.41-0.26c-8.37-1.01-16.64-1.25-24.97,0.12c-1.55,0.25-3.31,0.67-4.61-0.85
	c5.2-0.67,10.39-1.83,15.6-1.89C478.15,34.04,485.65,35.15,493,37.01z"/>
<ellipse class="st9" cx="509.46" cy="303.6" rx="0.28" ry="16.05"/>
<ellipse class="st9" cx="509.53" cy="258.4" rx="0.32" ry="16.07"/>
<path class="st9" d="M508.81,327.25c0,2.85,0,5.7,0,8.55c-0.16,0-0.33,0.01-0.49,0.01c0-2.86,0-5.72,0-8.58
	C508.49,327.23,508.65,327.24,508.81,327.25z"/>
<ellipse class="st9" cx="508.5" cy="230.01" rx="0.35" ry="5.62"/>
<path class="st25" d="M507.82,345.14c0,1.88,0,3.76,0,5.64c-0.16,0.01-0.33,0.02-0.49,0.03c0-1.87,0-3.74,0-5.61
	C507.49,345.19,507.66,345.16,507.82,345.14z"/>
<path class="st9" d="M507.26,215.6c0-1.87,0-3.75,0-6.57C508.38,212.01,507.92,214.01,507.26,215.6z"/>
<path class="st26" d="M506.12,365.03c-0.04-2.96-0.53-4.56,0.45-6.26C507.17,360.67,507.29,362.36,506.12,365.03z"/>
<path class="st25" d="M506.46,196.85c0.65,2.95,0.74,4.51,0.07,6.61C505.78,201.35,505.91,199.73,506.46,196.85z"/>
<path class="st9" d="M481.97,153.34c-2.3,1.1-4.61,0.49-6.92,0.31C477.35,152.57,479.66,153.16,481.97,153.34z"/>
<g>
	<g>
		<path class="st1" d="M420.85,86.7c-0.06,0.76-0.9,1.76-1.31,2.39c-0.55,0.83-1.15,1.62-1.79,2.38c-1.24,1.46,0.87,3.6,2.12,2.12
			c1.59-1.88,3.77-4.35,3.99-6.9C424.01,84.78,421.01,84.79,420.85,86.7L420.85,86.7z"/>
	</g>
</g>
<g>
	<g>
		<path class="st1" d="M419.63,93.85c1.47-2.04,2.79-4.15,3.89-6.41c1.21-2.5,1.78-5.28,3.07-7.72c0.9-1.71-1.69-3.23-2.59-1.51
			c-1.3,2.46-1.85,5.21-3.07,7.72c-1.1,2.26-2.42,4.37-3.89,6.41C415.91,93.91,418.51,95.41,419.63,93.85L419.63,93.85z"/>
	</g>
</g>
<path class="st20" d="M422.65,79.58c0,0,3.84-1.38,7.37,0.12"/>
<path class="st1" d="M421.65,90.61L418,94c0,0,6,27,8,28s4-21,4-21L421.65,90.61z"/>
<g>
	<g>
		<path class="st16" d="M425.42,127.42c2.63-3.06,8.54-2.35,12.11-1.85c1.42,0.2,2.03-1.97,0.6-2.17
			c-4.4-0.63-11.03-1.38-14.29,2.42C422.89,126.92,424.47,128.52,425.42,127.42L425.42,127.42z"/>
	</g>
</g>
<path class="st16" d="M428.88,85.5l-0.07,4.21c-0.02,1.41-1.22,2.55-2.66,2.53l0,0c-1.44-0.02-2.61-1.19-2.58-2.61l0.07-4.21
	c0.02-1.41,1.22-2.55,2.66-2.53l0,0C427.74,82.92,428.9,84.09,428.88,85.5z"/>
<ellipse class="st17" cx="433.84" cy="100.96" rx="3.03" ry="2.96"/>
<g>
	<g>
		<path class="st0" d="M507.51,190.37c1.16,24.97,2.39,49.83,2.54,74.81c0.15,24.9,0.27,49.8-0.05,74.7
			c-0.11,8.63,0.3,17.65-0.95,26.22c-0.28,1.89,2.61,2.7,2.89,0.8c1.03-7.03,0.84-14.33,0.97-21.41
			c0.22-12.34,0.26-24.67,0.27-37.01c0.02-21.37-0.1-42.74-0.29-64.12c-0.16-17.99-1.55-36.02-2.39-53.99
			C510.42,188.44,507.42,188.43,507.51,190.37L507.51,190.37z"/>
	</g>
</g>
<g>
	<g>
		<path class="st0" d="M508.74,367.45c0.32,2.08,0.01,4.09-0.25,6.15c-0.2,1.52-0.07,3.55-0.86,4.89c-0.98,1.67,1.61,3.18,2.59,1.51
			c1.14-1.94,1-4.36,1.28-6.54c0.3-2.31,0.48-4.5,0.12-6.82C511.34,364.75,508.45,365.56,508.74,367.45L508.74,367.45z"/>
	</g>
</g>
<g>
	<g>
		<path class="st0" d="M508.94,366.76c0,0.02,0,0.04,0,0.06c0,0.78,0.69,1.54,1.5,1.5c0.81-0.04,1.5-0.66,1.5-1.5
			c0-0.02,0-0.04,0-0.06c0-0.78-0.69-1.54-1.5-1.5C509.62,365.29,508.94,365.91,508.94,366.76L508.94,366.76z"/>
	</g>
</g>
<g>
	<g>
		<path class="st0" d="M508.97,367.3c0,0.22-0.01,0.42-0.04,0.64c-0.1,0.78,0.76,1.53,1.5,1.5c0.9-0.04,1.39-0.66,1.5-1.5
			c0.03-0.21,0.04-0.42,0.04-0.64c-0.02-0.78-0.68-1.54-1.5-1.5C509.67,365.83,508.95,366.46,508.97,367.3L508.97,367.3z"/>
	</g>
</g>
<g>
	<g>
		<path class="st3" d="M408.42,541.44c-1.62-3.45-1.57-7.28-1.51-11.01c0.03-1.93-2.97-1.93-3,0c-0.07,4.32,0.05,8.54,1.92,12.52
			C406.65,544.7,409.24,543.18,408.42,541.44L408.42,541.44z"/>
	</g>
</g>
<path class="st20" d="M466,84.57c0,0-3.93-3.13-5.57,3.08"/>
<path class="st20" d="M462.62,84.08c0,0,2.76,4.8-0.14,7.98"/>
</svg>
