<?xml version="1.0" encoding="utf-8"?>
<!-- Generator: Adobe Illustrator 23.0.0, SVG Export Plug-In . SVG Version: 6.00 Build 0)  -->
<svg version="1.1" id="Layer_1" xmlns="http://www.w3.org/2000/svg" xmlns:xlink="http://www.w3.org/1999/xlink" x="0px" y="0px"
	 viewBox="0 0 1084.32 559.39" style="enable-background:new 0 0 1084.32 559.39;" xml:space="preserve">
<style type="text/css">
	.st0{fill:#30A16D;}
	.st1{fill:#070001;}
	.st2{fill:#FFFFFF;}
	.st3{fill:#FFFFFF;stroke:#070001;stroke-width:7.3259;stroke-linecap:round;stroke-miterlimit:10;}
	.st4{fill:#FFFFFF;stroke:#070001;stroke-width:5.7953;stroke-linecap:round;stroke-miterlimit:10;}
	.st5{fill:none;stroke:#070001;stroke-width:5.7953;stroke-linecap:round;stroke-miterlimit:10;}
	.st6{fill:none;stroke:#070001;stroke-width:5.4944;stroke-linecap:round;stroke-miterlimit:10;}
	.st7{fill:#FFFFFF;stroke:#040000;stroke-width:7;stroke-miterlimit:10;}
	.st8{fill:#FFFFFF;stroke:#070001;stroke-width:7.4897;stroke-linecap:round;stroke-miterlimit:10;}
	.st9{fill:#F29E9F;}
	.st10{fill:#FFFFFF;stroke:#040000;stroke-width:5;stroke-miterlimit:10;}
	.st11{fill:none;stroke:#070001;stroke-width:4.0918;stroke-linecap:round;stroke-miterlimit:10;}
	.st12{fill:none;stroke:#040000;stroke-width:7;stroke-miterlimit:10;}
	.st13{fill:#8E8E8E;}
	.st14{fill:none;stroke:#040000;stroke-width:5;stroke-miterlimit:10;}
	.st15{fill:#040000;}
	.st16{fill:#DDDDDD;stroke:#040000;stroke-width:3;stroke-miterlimit:10;}
	.st17{fill:none;stroke:#040000;stroke-width:4;stroke-miterlimit:10;}
	.st18{fill:#DDDDDD;stroke:#050101;stroke-width:4;stroke-miterlimit:10;}
	.st19{fill:#FFFFFF;stroke:#75A896;stroke-width:5;stroke-miterlimit:10;}
</style>
<path class="st0" d="M345,559.5C345,347.15,517.15,175,729.5,175S1114,347.15,1114,559.5"/>
<path class="st1" d="M118.77,288.21c6.79,33.41-63.78,49.9-11.25,120.46c44.98,60.42,0.9,42.61,17.6,99
	c9.55,32.24,49.8,53.58,81.65,50.67c78.35-7.17,73.68-54.09,163-13.91c55.54,24.98,78.89-43.7,78.89-43.7
	c64.8,22.1,76.15-32.5,76.15-32.5c-82.91,17.9-76.09-47.26-43.41-76.78c51.49-46.51,13.18-135.06-15.8-173.44
	c-27.1-35.88-0.65-72.05-64.77-134.37c-32.74-31.82-116.03-43.53-155.22-11.4C245.59,72.24,77.59,85.71,118.77,288.21z"/>
<path class="st2" d="M298.41,148.38c-109.99-1.66-125.3,57.7-126.47,131.2l3.7,34.7c13.34,56.93,61.06,99.4,118.55,100.27
	c57.33,0.87,106.25-39.92,121.54-96.17l4.93-35.04C421.83,209.85,408.4,150.05,298.41,148.38z"/>
<path class="st3" d="M171.94,279.58c1.16-73.5,16.48-132.87,126.47-131.2c109.99,1.66,123.42,61.47,122.25,134.97"/>
<path class="st4" d="M411.28,258.82c6.47-8.65,15.8-13.78,25.69-12.95c17.11,1.43,29.45,20.12,27.56,41.74
	c-1.89,21.62-17.3,37.99-34.41,36.56c-5.36-0.45-10.26-2.59-14.39-5.99"/>
<path class="st5" d="M448.1,270.57c0,0-16.01-12.73-22.67,12.52"/>
<path class="st5" d="M434.34,268.58c0,0,11.23,19.53-0.55,32.48"/>
<path class="st4" d="M182.49,255.29c-6.05-8.94-15.13-14.48-25.05-14.1c-17.16,0.65-30.38,18.76-29.51,40.45
	c0.86,21.68,15.47,38.73,32.64,38.08c5.55-0.21,10.69-2.25,15.08-5.65"/>
<path class="st5" d="M145.18,265.36c0,0,16.6-11.99,22.05,13.54"/>
<path class="st5" d="M159.01,264c0,0-12.15,18.99-1,32.47"/>
<path class="st6" d="M336.79,244.92c0,0,18.71-9.48,37.03,5.73"/>
<path class="st1" d="M255.07,278l-0.23,14.58c-0.08,4.89-4.23,8.83-9.23,8.75l0,0c-5-0.08-9.03-4.14-8.95-9.03l0.23-14.58
	c0.08-4.89,4.23-8.83,9.23-8.75l0,0C251.12,269.05,255.15,273.12,255.07,278z"/>
<path class="st1" d="M355.54,279.34l-0.23,14.58c-0.08,4.89-4.23,8.83-9.23,8.75l0,0c-5-0.08-9.03-4.14-8.95-9.03l0.23-14.58
	c0.08-4.89,4.23-8.83,9.23-8.75l0,0C351.59,270.39,355.62,274.45,355.54,279.34z"/>
<path class="st6" d="M258.53,243.73c0,0-18.4-10.04-37.2,4.61"/>
<path class="st1" d="M447.06,219.94c-9.54,14.27-32.42,25.53-32.42,25.53c-37.18-78.28-129.95-81.1-120.41-95.38
	c9.54-14.27,52.02-31.43,94.03-4.59S456.6,205.67,447.06,219.94z"/>
<path class="st1" d="M141.31,219.16c9.08,14.56,31.6,26.5,31.6,26.5c39.64-77.11,132.45-77.13,123.37-91.69
	c-9.08-14.56-51-32.99-93.84-7.44C159.6,172.09,132.23,204.6,141.31,219.16z"/>
<path class="st7" d="M249.49,409.7v24.62c0,0,34.81,30.42,87.4,0V409.7H249.49z"/>
<path class="st8" d="M415.71,319.91c-15.33,58.81-64.28,101.47-121.61,100.6c-57.49-0.87-105.17-45.24-118.48-104.73"/>
<path class="st1" d="M307.86,320.32c-0.06,3.77-5.47,1.35-12.2,1.25c-6.72-0.1-12.21,2.15-12.15-1.62
	c0.06-3.77,5.56-6.74,12.28-6.64C302.52,313.41,307.92,316.55,307.86,320.32z"/>
<path class="st1" d="M322.63,359.26c-0.11,7.23-12.57,12.9-27.82,12.66c-15.25-0.23-27.52-6.28-27.4-13.5
	c0.11-7.23,12.46-6.29,27.71-6.06C310.37,352.59,322.74,352.03,322.63,359.26z"/>
<path class="st2" d="M314.27,359.07c-0.05,2.86-8.69,5.05-19.32,4.89c-10.62-0.16-19.2-2.61-19.15-5.47
	c0.05-2.86,8.65-2.43,19.27-2.27C305.7,356.38,314.31,356.21,314.27,359.07z"/>
<ellipse class="st9" cx="354.89" cy="333.04" rx="13.18" ry="12.88"/>
<ellipse class="st9" cx="239.99" cy="333.04" rx="13.18" ry="12.88"/>
<path class="st10" d="M584.87,560c0,0,6.97-119.58,134.09-141.08c0,0,22.97,22.66,47.16,21.82s42.42-16.05,45.64-20.25
	c3.22-4.2,140.53,21.5,142.67,139.51"/>
<path class="st10" d="M111.87,560.5c0,0,6.97-119.58,134.09-141.08c0,0,22.97,22.66,47.16,21.82c24.18-0.84,42.42-16.05,45.64-20.25
	c3.22-4.2,140.53,21.5,142.67,139.51"/>
<path class="st1" d="M601.32,281.23c18.81,32.66,21.94,66.8,61.4,106.89c68.75,69.84,169.32,59.62,224.36-14.76
	c36.39-49.18,23.19-65.94,47.77-92c54.23-57.5,9.98-75.1,11.18-123.3c0.89-35.67-38.15-37.03-57.24-72.27
	c-52.55-97-146.82-40.35-146.82-40.35c-99.49-25.11-86.87,52.73-121.55,68.84C595.08,126.06,547.73,188.17,601.32,281.23z"/>
<path class="st7" d="M812.35,444.23v-26.14h-92.79v26.14"/>
<path class="st2" d="M681.02,404.29c0,0,19.66,13.8,28.28,17.32c0,0,6.93,19.25,39.33,26.81l1.23,8.21c0,0-69.74,11.28-74.75-26.65
	C675.11,429.98,672.74,407.32,681.02,404.29z"/>
<path class="st2" d="M771.36,141.07c-116.58-2.79-133.4,60-135.35,137.91l3.59,36.82c13.59,60.47,63.76,105.95,124.7,107.4
	c60.77,1.45,113.03-41.32,129.78-100.81l5.56-37.1C901.6,207.38,887.94,143.86,771.36,141.07z"/>
<path class="st3" d="M636.02,278.98c1.95-77.91,18.92-149.34,135.5-146.55c116.58,2.79,130.08,74.95,128.13,152.86"/>
<path class="st4" d="M889.94,246.2c6.94-9.11,16.88-14.46,27.36-13.49c18.13,1.68,31.03,21.6,28.81,44.51
	c-2.22,22.9-18.71,40.11-36.83,38.43c-5.68-0.53-10.85-2.84-15.2-6.49"/>
<path class="st5" d="M928.86,258.99c0,0-16.85-13.64-24.16,13.06"/>
<path class="st5" d="M914.3,256.76c0,0,11.72,20.8-0.9,34.42"/>
<path class="st4" d="M647.43,253.33c-6.33-9.53-15.89-15.49-26.42-15.18c-18.2,0.53-32.38,19.61-31.68,42.6
	c0.7,23,16.03,41.21,34.23,40.67c5.89-0.17,11.36-2.29,16.04-5.84"/>
<path class="st5" d="M607.78,263.65c0,0,17.71-12.55,23.25,14.55"/>
<path class="st5" d="M622.46,262.33c0,0-13.06,20.02-1.37,34.41"/>
<path class="st11" d="M810.65,248.78c0,0,23.35-8.38,44.87,0.76"/>
<path class="st1" d="M724.34,276.57l-0.39,15.46c-0.13,5.18-4.57,9.32-9.87,9.19l0,0c-5.3-0.13-9.53-4.47-9.4-9.65l0.39-15.46
	c0.13-5.18,4.57-9.32,9.87-9.19l0,0C720.24,267.05,724.47,271.39,724.34,276.57z"/>
<path class="st1" d="M830.84,278.93l-0.39,15.46c-0.13,5.18-4.57,9.32-9.87,9.19l0,0c-5.3-0.13-9.53-4.47-9.4-9.65l0.39-15.46
	c0.13-5.18,4.57-9.32,9.87-9.19l0,0C826.74,269.4,830.97,273.75,830.84,278.93z"/>
<path class="st11" d="M728.23,244c0,0-22.29-4.86-44.75,1.77"/>
<path class="st1" d="M931.73,210.58c-10.25,15.04-25.27,4.43-25.27,4.43c-55.64-10.44-146.31-64.85-136.06-79.89
	c10.25-15.04,55.46-32.84,99.73-3.99C914.4,159.96,941.98,195.54,931.73,210.58z"/>
<path class="st1" d="M607.62,206.9c17.09,6.89,33.24,28.39,33.24,28.39c42.77-81.38,126.62-12.72,131.68-96.05
	c1.1-18.04-54.14-36.08-99.41-8.76C623.87,160.21,588.76,199.3,607.62,206.9z"/>
<path class="st12" d="M826.42,413.79"/>
<path class="st13" d="M812.91,427.93v6.58c0,0,5.63-4.65,7.07-8.84L812.91,427.93z"/>
<path class="st2" d="M823.2,424.36c0,0,23.05-9.84,35.66-21.39c0,0,11.96,7.84,6.27,29c0,0-3.09,32.6-73.36,23.38l2.11-5.88
	C793.88,449.46,813.65,440.77,823.2,424.36z"/>
<path class="st14" d="M693.28,398.08c0,0-23.72-0.47-17.86,33.88c5.86,34.35,75.8,24.49,75.8,24.49"/>
<path class="st8" d="M894.04,324c-16.82,62.2-69.13,106.97-129.9,105.51c-60.93-1.46-111.05-48.93-124.58-112.12"/>
<path class="st1" d="M802.62,357.11c3.66,8.02-12.64,22.28-37.27,21.7c-24.63-0.6-40.19-15.63-36.14-23.46
	c3.57-8.23,17.55-0.88,36.74-0.5C785.13,355.39,799.47,348.72,802.62,357.11z"/>
<path class="st2" d="M790.64,358.29c1.47,3.14-9.47,10.56-24.97,10.17c-15.5-0.34-26.06-8.28-24.43-11.35
	c1.4-3.29,11.32,1.6,24.67,1.86C779.25,359.35,789.41,354.94,790.64,358.29z"/>
<path class="st1" d="M755.32,318.85c0.14-4.72,5.24-1.65,11.65-1.47s11.68-2.6,11.54,2.12c-0.14,4.72-5.44,8.39-11.84,8.21
	C760.26,327.53,755.18,323.56,755.32,318.85z"/>
<path class="st14" d="M708.01,418.46c4.8,19.37,39.85,27.27,39.85,27.27"/>
<g>
	<g>
		<path class="st15" d="M767.03,535.34c1.93,0,1.93-3,0-3C765.1,532.34,765.1,535.34,767.03,535.34L767.03,535.34z"/>
	</g>
</g>
<path class="st14" d="M791.93,449.46c0,0,32.45-15.18,32.82-35.1"/>
<path class="st13" d="M718.48,425.52v6.92c0,0-5.01-3.85-7.01-9.88C711.47,422.57,713.19,423.69,718.48,425.52z"/>
<path class="st14" d="M790.63,456.46c0,0,69.94,9.86,75.8-24.49c5.86-34.35-17.86-33.88-17.86-33.88"/>
<polyline class="st16" points="741.51,458.05 741.51,482.54 735.98,488.27 747.04,488.27 741.51,482.23 "/>
<polyline class="st16" points="801.37,458.05 801.37,482.54 795.84,488.27 806.9,488.27 801.37,482.23 "/>
<ellipse class="st9" cx="827.08" cy="331.69" rx="13.18" ry="12.88"/>
<ellipse class="st9" cx="712.18" cy="331.69" rx="13.18" ry="12.88"/>
<g>
	<path class="st17" d="M248.5,421.6c0,0,21.97,67.73,42.72,67.73c20.75,0,46.38-68.33,46.38-68.33"/>
	<path class="st18" d="M291.58,489.82c0,0-5.23,0.49-5.23,9.24c0,8.75,5.23,8.16,5.23,8.16s5.45,0.56,5.45-8.16
		S293.41,489.82,291.58,489.82z"/>
</g>
<path class="st7" d="M240.23,420.42"/>
<path class="st19" d="M156.73,131.98"/>
</svg>
