<?xml version="1.0" encoding="utf-8"?>
<!-- Generator: Adobe Illustrator 23.0.0, SVG Export Plug-In . SVG Version: 6.00 Build 0)  -->
<svg version="1.1" id="Layer_1" xmlns="http://www.w3.org/2000/svg" xmlns:xlink="http://www.w3.org/1999/xlink" x="0px" y="0px"
	 viewBox="0 0 743.32 741.39" style="enable-background:new 0 0 743.32 741.39;" xml:space="preserve">
<style type="text/css">
	.st0{fill:#329A69;}
	.st1{fill:#FFFFFF;}
	.st2{font-family:'Jalnan';}
	.st3{font-size:221.2157px;}
	.st4{fill:#090103;}
	.st5{fill:#FFFFFF;stroke:#090103;stroke-width:7.3259;stroke-linecap:round;stroke-miterlimit:10;}
	.st6{fill:#FFFFFF;stroke:#090103;stroke-width:5.7953;stroke-linecap:round;stroke-miterlimit:10;}
	.st7{fill:none;stroke:#090103;stroke-width:5.7953;stroke-linecap:round;stroke-miterlimit:10;}
	.st8{fill:none;stroke:#090103;stroke-width:5.4944;stroke-linecap:round;stroke-miterlimit:10;}
	.st9{fill:#FFFFFF;stroke:#070001;stroke-width:7;stroke-miterlimit:10;}
	.st10{fill:#FFFFFF;stroke:#090103;stroke-width:7.4897;stroke-linecap:round;stroke-miterlimit:10;}
	.st11{fill:#E99A9C;}
	.st12{fill:#FFFFFF;stroke:#070001;stroke-width:5;stroke-miterlimit:10;}
	.st13{fill:none;stroke:#070001;stroke-width:4;stroke-miterlimit:10;}
	.st14{fill:#DDDDDD;stroke:#070102;stroke-width:4;stroke-miterlimit:10;}
	.st15{fill:#FFFFFF;stroke:#73A493;stroke-width:5;stroke-miterlimit:10;}
</style>
<g>
	<path class="st0" d="M695.16,745H47.84C21.53,745,0,723.47,0,697.16V49.84C0,23.53,21.53,2,47.84,2h647.32
		C721.47,2,743,23.53,743,49.84v647.32C743,723.47,721.47,745,695.16,745z"/>
	<g>
		<text transform="matrix(1 0 0 1 17.7398 410.8853)" class="st1 st2 st3">HIP</text>
		<text transform="matrix(1 0 0 1 327.7398 410.8853)" class="st1 st2 st3">HIP</text>
	</g>
</g>
<g>
	<path class="st4" d="M124.81,375.6c9.16,45.08-86.06,67.33-15.18,162.53c60.69,81.52,1.21,57.49,23.75,133.58
		c12.89,43.5,67.19,72.29,110.17,68.37c105.72-9.67,99.41-72.98,219.93-18.77c74.94,33.7,106.44-58.96,106.44-58.96
		c87.43,29.82,102.75-43.85,102.75-43.85c-111.87,24.15-102.67-63.77-58.57-103.6c69.47-62.76,17.78-182.23-21.32-234.02
		c-36.57-48.41-0.88-97.22-87.39-181.3C461.21,56.65,348.83,40.85,295.95,84.2C295.93,84.2,69.25,102.38,124.81,375.6z"/>
	<path class="st1" d="M367.2,186.93c-148.41-2.24-169.06,77.85-170.64,177.03l4.99,46.82c18,76.81,82.39,134.12,159.96,135.29
		c77.35,1.17,143.36-53.86,163.99-129.76l6.65-47.28C533.72,269.87,515.6,189.19,367.2,186.93z"/>
	<path class="st5" d="M196.55,363.96c1.57-99.17,22.24-179.28,170.64-177.03c148.41,2.24,166.53,82.94,164.95,182.11"/>
	<path class="st6" d="M210.79,331.19c-8.16-12.06-20.41-19.54-33.8-19.02c-23.15,0.88-40.99,25.31-39.82,54.58
		c1.16,29.25,20.87,52.26,44.04,51.38c7.49-0.28,14.42-3.04,20.35-7.62"/>
	<path class="st7" d="M160.45,344.77c0,0,22.4-16.18,29.75,18.27"/>
	<path class="st7" d="M179.11,342.94c0,0-16.39,25.62-1.35,43.81"/>
	<path class="st8" d="M418.98,317.19c0,0,25.25-12.79,49.96,7.73"/>
	<path class="st4" d="M308.72,361.83l-0.31,19.67c-0.11,6.6-5.71,11.91-12.45,11.81l0,0c-6.75-0.11-12.18-5.59-12.08-12.18
		l0.31-19.67c0.11-6.6,5.71-11.91,12.45-11.81l0,0C303.39,349.75,308.83,355.24,308.72,361.83z"/>
	<path class="st4" d="M444.28,363.64l-0.31,19.67c-0.11,6.6-5.71,11.91-12.45,11.81l0,0c-6.75-0.11-12.18-5.59-12.08-12.18
		l0.31-19.67c0.11-6.6,5.71-11.91,12.45-11.81l0,0C438.95,351.56,444.39,357.04,444.28,363.64z"/>
	<path class="st8" d="M313.39,315.59c0,0-24.83-13.55-50.19,6.22"/>
	<path class="st4" d="M567.77,283.49c-12.87,19.25-43.74,34.45-43.74,34.45c-50.17-105.62-175.34-109.43-162.47-128.69
		c12.87-19.25,70.19-42.41,126.87-6.19S580.64,264.23,567.77,283.49z"/>
	<path class="st4" d="M155.22,282.44c12.25,19.65,42.64,35.76,42.64,35.76c53.49-104.04,178.71-104.07,166.46-123.72
		c-12.25-19.65-68.81-44.51-126.62-10.04C179.9,218.93,142.97,262.79,155.22,282.44z"/>
	<path class="st9" d="M301.19,539.53v33.22c0,0,46.97,41.05,117.93,0v-33.22H301.19z"/>
	<path class="st10" d="M525.47,418.38c-20.68,79.35-86.73,136.91-164.09,135.74c-77.57-1.17-141.9-61.04-159.86-141.31"/>
	<path class="st4" d="M379.95,418.93c-0.08,5.09-7.38,1.82-16.46,1.69c-9.07-0.13-16.47,2.9-16.39-2.19s7.5-9.09,16.57-8.96
		C372.74,409.61,380.03,413.84,379.95,418.93z"/>
	<path class="st4" d="M399.88,471.47c-0.15,9.76-16.96,17.41-37.54,17.08c-20.58-0.31-37.13-8.47-36.97-18.22
		c0.15-9.76,16.81-8.49,37.39-8.18C383.33,462.47,400.02,461.72,399.88,471.47z"/>
	<path class="st1" d="M388.6,471.21c-0.07,3.86-11.73,6.81-26.07,6.6c-14.33-0.22-25.91-3.52-25.84-7.38
		c0.07-3.86,11.67-3.28,26-3.06C377.03,467.58,388.65,467.36,388.6,471.21z"/>
	<ellipse class="st11" cx="443.4" cy="436.09" rx="17.78" ry="17.38"/>
	<ellipse class="st11" cx="288.37" cy="436.09" rx="17.78" ry="17.38"/>
	<path class="st12" d="M115.5,743c0,0,9.4-161.35,180.92-190.36c0,0,30.99,30.57,63.63,29.44c32.63-1.13,57.24-21.66,61.58-27.32
		c4.34-5.67,189.61,29.01,192.5,188.24"/>
	<g>
		<path class="st13" d="M299.85,555.58c0,0,29.64,91.39,57.64,91.39s62.58-92.2,62.58-92.2"/>
		<path class="st14" d="M357.98,647.63c0,0-7.06,0.66-7.06,12.47s7.06,11.01,7.06,11.01s7.35,0.76,7.35-11.01
			S360.45,647.63,357.98,647.63z"/>
	</g>
	<path class="st9" d="M288.69,553.99"/>
	<path class="st15" d="M176.03,164.81"/>
</g>
</svg>
