<?xml version="1.0" standalone="no"?>
<!DOCTYPE svg PUBLIC "-//W3C//DTD SVG 20010904//EN"
 "http://www.w3.org/TR/2001/REC-SVG-20010904/DTD/svg10.dtd">
<svg version="1.0" xmlns="http://www.w3.org/2000/svg"
 width="743.000000pt" height="743.000000pt" viewBox="0 0 743.000000 743.000000"
 preserveAspectRatio="xMidYMid meet">
<metadata>
Created by potrace 1.11, written by Peter Selinger 2001-2013
</metadata>
<g transform="translate(0.000000,743.000000) scale(0.100000,-0.100000)"
fill="#000000" stroke="none">
<path d="M365 7384 c-32 -8 -70 -21 -82 -29 -13 -9 -23 -13 -23 -10 0 17 -121
-83 -164 -135 -28 -35 -74 -138 -86 -194 -11 -57 -10 -6645 2 -6683 36 -117
145 -254 239 -300 l46 -23 3416 0 3415 0 51 26 c98 51 178 148 224 271 l21 58
1 3305 c1 2803 -1 3313 -12 3360 -45 175 -170 304 -341 351 -64 18 -181 19
-3357 18 -2830 -1 -3298 -3 -3350 -15z"/>
</g>
</svg>
